<svg xmlns="http://www.w3.org/2000/svg" width="15.97" height="16" viewBox="0 0 15.97 16">
  <metadata><?xpacket begin="﻿" id="W5M0MpCehiHzreSzNTczkc9d"?>
<x:xmpmeta xmlns:x="adobe:ns:meta/" x:xmptk="Adobe XMP Core 5.6-c140 79.160451, 2017/05/06-01:08:21        ">
   <rdf:RDF xmlns:rdf="http://www.w3.org/1999/02/22-rdf-syntax-ns#">
      <rdf:Description rdf:about=""/>
   </rdf:RDF>
</x:xmpmeta>
                                                                                                    
                                                                                                    
                                                                                                    
                                                                                                    
                                                                                                    
                                                                                                    
                                                                                                    
                                                                                                    
                                                                                                    
                                                                                                    
                                                                                                    
                                                                                                    
                                                                                                    
                                                                                                    
                                                                                                    
                                                                                                    
                                                                                                    
                                                                                                    
                                                                                                    
                                                                                                    
                           
<?xpacket end="w"?></metadata>
<defs>
    <style>
      .cls-1 {
        fill: #d0d0d0;
        fill-rule: evenodd;
      }
    </style>
  </defs>
  <path id="Фигура_7" data-name="Фигура 7" class="cls-1" d="M2435.79,347.091l-6.89,6.9,6.89,6.9a0.646,0.646,0,0,1-.45,1.1,0.65,0.65,0,0,1-.46-0.189l-6.89-6.9-6.9,6.9a0.65,0.65,0,0,1-.46.189,0.646,0.646,0,0,1-.45-1.1l6.89-6.9-6.89-6.9a0.633,0.633,0,0,1,0-.914,0.642,0.642,0,0,1,.91,0l6.9,6.9,6.89-6.9a0.642,0.642,0,0,1,.91,0A0.633,0.633,0,0,1,2435.79,347.091Z" transform="translate(-2420 -346)"/>
</svg>
