<svg xmlns="http://www.w3.org/2000/svg" width="25" height="18" viewBox="0 0 25 18">
  <metadata><?xpacket begin="﻿" id="W5M0MpCehiHzreSzNTczkc9d"?>
<x:xmpmeta xmlns:x="adobe:ns:meta/" x:xmptk="Adobe XMP Core 5.6-c140 79.160451, 2017/05/06-01:08:21        ">
   <rdf:RDF xmlns:rdf="http://www.w3.org/1999/02/22-rdf-syntax-ns#">
      <rdf:Description rdf:about=""/>
   </rdf:RDF>
</x:xmpmeta>
                                                                                                    
                                                                                                    
                                                                                                    
                                                                                                    
                                                                                                    
                                                                                                    
                                                                                                    
                                                                                                    
                                                                                                    
                                                                                                    
                                                                                                    
                                                                                                    
                                                                                                    
                                                                                                    
                                                                                                    
                                                                                                    
                                                                                                    
                                                                                                    
                                                                                                    
                                                                                                    
                           
<?xpacket end="w"?></metadata>
<defs>
    <style>
      .cls-1 {
        fill: #eb3345;
        fill-rule: evenodd;
      }
    </style>
  </defs>
  <path id="Фигура_6" data-name="Фигура 6" class="cls-1" d="M2018.48,346.816a3.159,3.159,0,0,0-2.2-2.265c-1.95-.551-9.78-0.551-9.78-0.551s-7.83,0-9.78.529a3.257,3.257,0,0,0-2.21,2.287,37.747,37.747,0,0,0,0,12.368,3.189,3.189,0,0,0,2.21,2.265c1.97,0.551,9.78.551,9.78,0.551s7.83,0,9.78-.529a3.162,3.162,0,0,0,2.2-2.266,34.546,34.546,0,0,0,.52-6.184A32.871,32.871,0,0,0,2018.48,346.816Zm-14.47,10.038v-7.708l6.5,3.854Z" transform="translate(-1994 -344)"/>
</svg>
